<mxfile host="Electron" modified="2023-11-15T20:07:23.288Z" agent="Mozilla/5.0 (Windows NT 10.0; Win64; x64) AppleWebKit/537.36 (KHTML, like Gecko) draw.io/22.0.3 Chrome/114.0.5735.289 Electron/25.8.4 Safari/537.36" etag="em4epfIY-lBx1059hGe5" version="22.0.3" type="device">
  <diagram name="Страница — 1" id="CkVmxn1lj-kZscMhj1uC">
    <mxGraphModel dx="1498" dy="828" grid="0" gridSize="10" guides="1" tooltips="1" connect="1" arrows="1" fold="1" page="0" pageScale="1" pageWidth="827" pageHeight="1169" math="0" shadow="0">
      <root>
        <mxCell id="0" />
        <mxCell id="1" parent="0" />
        <mxCell id="WNxXBfY8PEVAikAszBV7-4" value="" style="rounded=0;whiteSpace=wrap;html=1;" parent="1" vertex="1">
          <mxGeometry x="79" y="212" width="605" height="615" as="geometry" />
        </mxCell>
        <mxCell id="rK1kGzo9-X5FyS6nOSef-6" style="rounded=0;orthogonalLoop=1;jettySize=auto;html=1;endArrow=none;endFill=0;" parent="1" source="WNxXBfY8PEVAikAszBV7-1" target="rK1kGzo9-X5FyS6nOSef-5" edge="1">
          <mxGeometry relative="1" as="geometry" />
        </mxCell>
        <mxCell id="WNxXBfY8PEVAikAszBV7-1" value="Студент" style="shape=umlActor;verticalLabelPosition=bottom;verticalAlign=top;html=1;outlineConnect=0;" parent="1" vertex="1">
          <mxGeometry x="-176" y="433" width="30" height="60" as="geometry" />
        </mxCell>
        <mxCell id="rK1kGzo9-X5FyS6nOSef-8" style="rounded=0;orthogonalLoop=1;jettySize=auto;html=1;entryX=0;entryY=0.5;entryDx=0;entryDy=0;endArrow=none;endFill=0;" parent="1" source="WNxXBfY8PEVAikAszBV7-5" target="rK1kGzo9-X5FyS6nOSef-7" edge="1">
          <mxGeometry relative="1" as="geometry" />
        </mxCell>
        <mxCell id="WNxXBfY8PEVAikAszBV7-5" value="Преподаватель" style="shape=umlActor;verticalLabelPosition=bottom;verticalAlign=top;html=1;outlineConnect=0;" parent="1" vertex="1">
          <mxGeometry x="28" y="328" width="30" height="60" as="geometry" />
        </mxCell>
        <mxCell id="rK1kGzo9-X5FyS6nOSef-4" value="Электронная зачетка" style="text;html=1;strokeColor=none;fillColor=none;align=center;verticalAlign=middle;whiteSpace=wrap;rounded=0;" parent="1" vertex="1">
          <mxGeometry x="306.5" y="214" width="150" height="30" as="geometry" />
        </mxCell>
        <mxCell id="rK1kGzo9-X5FyS6nOSef-5" value="Просматривать оценки" style="ellipse;whiteSpace=wrap;html=1;" parent="1" vertex="1">
          <mxGeometry x="90" y="242" width="120" height="30" as="geometry" />
        </mxCell>
        <mxCell id="rK1kGzo9-X5FyS6nOSef-9" style="rounded=0;orthogonalLoop=1;jettySize=auto;html=1;exitX=0.907;exitY=0.833;exitDx=0;exitDy=0;entryX=0.775;entryY=1.1;entryDx=0;entryDy=0;dashed=1;exitPerimeter=0;entryPerimeter=0;" parent="1" source="rK1kGzo9-X5FyS6nOSef-7" target="rK1kGzo9-X5FyS6nOSef-5" edge="1">
          <mxGeometry relative="1" as="geometry" />
        </mxCell>
        <mxCell id="rK1kGzo9-X5FyS6nOSef-10" value="&quot;include&quot;" style="edgeLabel;html=1;align=center;verticalAlign=middle;resizable=0;points=[];" parent="rK1kGzo9-X5FyS6nOSef-9" vertex="1" connectable="0">
          <mxGeometry x="0.061" relative="1" as="geometry">
            <mxPoint x="-28" y="7" as="offset" />
          </mxGeometry>
        </mxCell>
        <mxCell id="rK1kGzo9-X5FyS6nOSef-7" value="Взаимодействие с оценками" style="ellipse;whiteSpace=wrap;html=1;" parent="1" vertex="1">
          <mxGeometry x="252" y="319" width="140" height="30" as="geometry" />
        </mxCell>
        <mxCell id="rK1kGzo9-X5FyS6nOSef-11" value="Проставлять оценки" style="ellipse;whiteSpace=wrap;html=1;" parent="1" vertex="1">
          <mxGeometry x="502" y="281" width="110" height="30" as="geometry" />
        </mxCell>
        <mxCell id="rK1kGzo9-X5FyS6nOSef-12" style="rounded=0;orthogonalLoop=1;jettySize=auto;html=1;exitX=0.956;exitY=0.136;exitDx=0;exitDy=0;dashed=1;entryX=0.009;entryY=0.767;entryDx=0;entryDy=0;exitPerimeter=0;entryPerimeter=0;" parent="1" source="rK1kGzo9-X5FyS6nOSef-7" target="rK1kGzo9-X5FyS6nOSef-11" edge="1">
          <mxGeometry relative="1" as="geometry">
            <mxPoint x="450" y="405" as="sourcePoint" />
            <mxPoint x="463.2857142857147" y="250" as="targetPoint" />
          </mxGeometry>
        </mxCell>
        <mxCell id="rK1kGzo9-X5FyS6nOSef-13" value="&quot;include&quot;" style="edgeLabel;html=1;align=center;verticalAlign=middle;resizable=0;points=[];" parent="rK1kGzo9-X5FyS6nOSef-12" vertex="1" connectable="0">
          <mxGeometry x="0.061" relative="1" as="geometry">
            <mxPoint x="49" y="3" as="offset" />
          </mxGeometry>
        </mxCell>
        <mxCell id="rK1kGzo9-X5FyS6nOSef-14" value="Изменять оценки" style="ellipse;whiteSpace=wrap;html=1;" parent="1" vertex="1">
          <mxGeometry x="358" y="257" width="90" height="30" as="geometry" />
        </mxCell>
        <mxCell id="rK1kGzo9-X5FyS6nOSef-15" style="rounded=0;orthogonalLoop=1;jettySize=auto;html=1;exitX=0.695;exitY=-0.094;exitDx=0;exitDy=0;dashed=1;entryX=0.5;entryY=1;entryDx=0;entryDy=0;exitPerimeter=0;" parent="1" source="rK1kGzo9-X5FyS6nOSef-7" target="rK1kGzo9-X5FyS6nOSef-14" edge="1">
          <mxGeometry relative="1" as="geometry">
            <mxPoint x="590" y="365" as="sourcePoint" />
            <mxPoint x="620" y="270" as="targetPoint" />
          </mxGeometry>
        </mxCell>
        <mxCell id="rK1kGzo9-X5FyS6nOSef-16" value="&quot;include&quot;" style="edgeLabel;html=1;align=center;verticalAlign=middle;resizable=0;points=[];" parent="rK1kGzo9-X5FyS6nOSef-15" vertex="1" connectable="0">
          <mxGeometry x="0.061" relative="1" as="geometry">
            <mxPoint x="-21" y="-9" as="offset" />
          </mxGeometry>
        </mxCell>
        <mxCell id="rK1kGzo9-X5FyS6nOSef-17" value="Удалять оценки" style="ellipse;whiteSpace=wrap;html=1;" parent="1" vertex="1">
          <mxGeometry x="534" y="349" width="80" height="30" as="geometry" />
        </mxCell>
        <mxCell id="rK1kGzo9-X5FyS6nOSef-18" style="rounded=0;orthogonalLoop=1;jettySize=auto;html=1;exitX=0.9;exitY=0.967;exitDx=0;exitDy=0;dashed=1;exitPerimeter=0;entryX=0.5;entryY=1;entryDx=0;entryDy=0;" parent="1" source="rK1kGzo9-X5FyS6nOSef-7" target="rK1kGzo9-X5FyS6nOSef-17" edge="1">
          <mxGeometry relative="1" as="geometry">
            <mxPoint x="548" y="368" as="sourcePoint" />
            <mxPoint x="485" y="290" as="targetPoint" />
          </mxGeometry>
        </mxCell>
        <mxCell id="rK1kGzo9-X5FyS6nOSef-19" value="&quot;include&quot;" style="edgeLabel;html=1;align=center;verticalAlign=middle;resizable=0;points=[];" parent="rK1kGzo9-X5FyS6nOSef-18" vertex="1" connectable="0">
          <mxGeometry x="0.061" relative="1" as="geometry">
            <mxPoint x="23" y="-2" as="offset" />
          </mxGeometry>
        </mxCell>
        <mxCell id="rK1kGzo9-X5FyS6nOSef-20" value="Взаимодействие с посещамостью" style="ellipse;whiteSpace=wrap;html=1;" parent="1" vertex="1">
          <mxGeometry x="385" y="410" width="140" height="30" as="geometry" />
        </mxCell>
        <mxCell id="rK1kGzo9-X5FyS6nOSef-21" value="Просматривать посещаемость" style="ellipse;whiteSpace=wrap;html=1;" parent="1" vertex="1">
          <mxGeometry x="286" y="500" width="120" height="30" as="geometry" />
        </mxCell>
        <mxCell id="rK1kGzo9-X5FyS6nOSef-22" style="rounded=0;orthogonalLoop=1;jettySize=auto;html=1;entryX=0;entryY=0.5;entryDx=0;entryDy=0;endArrow=none;endFill=0;" parent="1" source="WNxXBfY8PEVAikAszBV7-1" target="rK1kGzo9-X5FyS6nOSef-21" edge="1">
          <mxGeometry relative="1" as="geometry">
            <mxPoint x="160" y="380" as="sourcePoint" />
            <mxPoint x="220" y="350" as="targetPoint" />
          </mxGeometry>
        </mxCell>
        <mxCell id="rK1kGzo9-X5FyS6nOSef-23" style="rounded=0;orthogonalLoop=1;jettySize=auto;html=1;entryX=0;entryY=0;entryDx=0;entryDy=0;endArrow=none;endFill=0;" parent="1" source="WNxXBfY8PEVAikAszBV7-5" target="rK1kGzo9-X5FyS6nOSef-20" edge="1">
          <mxGeometry relative="1" as="geometry">
            <mxPoint x="730" y="330" as="sourcePoint" />
            <mxPoint x="230" y="360" as="targetPoint" />
          </mxGeometry>
        </mxCell>
        <mxCell id="rK1kGzo9-X5FyS6nOSef-24" value="Проставлять посещаемость" style="ellipse;whiteSpace=wrap;html=1;" parent="1" vertex="1">
          <mxGeometry x="529" y="470" width="130" height="30" as="geometry" />
        </mxCell>
        <mxCell id="rK1kGzo9-X5FyS6nOSef-25" value="Изменять посещаемость" style="ellipse;whiteSpace=wrap;html=1;" parent="1" vertex="1">
          <mxGeometry x="432" y="515" width="130" height="30" as="geometry" />
        </mxCell>
        <mxCell id="rK1kGzo9-X5FyS6nOSef-26" style="rounded=0;orthogonalLoop=1;jettySize=auto;html=1;entryX=0.5;entryY=0;entryDx=0;entryDy=0;dashed=1;" parent="1" source="rK1kGzo9-X5FyS6nOSef-20" target="rK1kGzo9-X5FyS6nOSef-25" edge="1">
          <mxGeometry relative="1" as="geometry">
            <mxPoint x="520" y="380" as="sourcePoint" />
            <mxPoint x="340" y="350" as="targetPoint" />
          </mxGeometry>
        </mxCell>
        <mxCell id="rK1kGzo9-X5FyS6nOSef-27" value="&quot;include&quot;" style="edgeLabel;html=1;align=center;verticalAlign=middle;resizable=0;points=[];" parent="rK1kGzo9-X5FyS6nOSef-26" vertex="1" connectable="0">
          <mxGeometry x="0.061" relative="1" as="geometry">
            <mxPoint x="-19" y="-3" as="offset" />
          </mxGeometry>
        </mxCell>
        <mxCell id="rK1kGzo9-X5FyS6nOSef-28" style="rounded=0;orthogonalLoop=1;jettySize=auto;html=1;exitX=1;exitY=0.5;exitDx=0;exitDy=0;entryX=0.315;entryY=0;entryDx=0;entryDy=0;dashed=1;entryPerimeter=0;" parent="1" source="rK1kGzo9-X5FyS6nOSef-20" target="rK1kGzo9-X5FyS6nOSef-24" edge="1">
          <mxGeometry relative="1" as="geometry">
            <mxPoint x="530" y="390" as="sourcePoint" />
            <mxPoint x="350" y="360" as="targetPoint" />
          </mxGeometry>
        </mxCell>
        <mxCell id="rK1kGzo9-X5FyS6nOSef-29" value="&quot;include&quot;" style="edgeLabel;html=1;align=center;verticalAlign=middle;resizable=0;points=[];" parent="rK1kGzo9-X5FyS6nOSef-28" vertex="1" connectable="0">
          <mxGeometry x="0.061" relative="1" as="geometry">
            <mxPoint x="-28" y="7" as="offset" />
          </mxGeometry>
        </mxCell>
        <mxCell id="rK1kGzo9-X5FyS6nOSef-30" style="rounded=0;orthogonalLoop=1;jettySize=auto;html=1;dashed=1;entryX=1;entryY=0.5;entryDx=0;entryDy=0;" parent="1" target="rK1kGzo9-X5FyS6nOSef-21" edge="1" source="rK1kGzo9-X5FyS6nOSef-20">
          <mxGeometry relative="1" as="geometry">
            <mxPoint x="522" y="431" as="sourcePoint" />
            <mxPoint x="334" y="418" as="targetPoint" />
          </mxGeometry>
        </mxCell>
        <mxCell id="rK1kGzo9-X5FyS6nOSef-31" value="&quot;include&quot;" style="edgeLabel;html=1;align=center;verticalAlign=middle;resizable=0;points=[];" parent="rK1kGzo9-X5FyS6nOSef-30" vertex="1" connectable="0">
          <mxGeometry x="0.061" relative="1" as="geometry">
            <mxPoint x="-28" y="7" as="offset" />
          </mxGeometry>
        </mxCell>
        <mxCell id="rK1kGzo9-X5FyS6nOSef-34" value="Заведующий кафедрой" style="shape=umlActor;verticalLabelPosition=bottom;verticalAlign=top;html=1;outlineConnect=0;" parent="1" vertex="1">
          <mxGeometry x="-13" y="491" width="30" height="60" as="geometry" />
        </mxCell>
        <mxCell id="rK1kGzo9-X5FyS6nOSef-35" value="Взаимодействие с группами" style="ellipse;whiteSpace=wrap;html=1;" parent="1" vertex="1">
          <mxGeometry x="311.5" y="673" width="140" height="30" as="geometry" />
        </mxCell>
        <mxCell id="rK1kGzo9-X5FyS6nOSef-36" style="rounded=0;orthogonalLoop=1;jettySize=auto;html=1;entryX=0;entryY=1;entryDx=0;entryDy=0;endArrow=none;endFill=0;" parent="1" source="rK1kGzo9-X5FyS6nOSef-34" target="rK1kGzo9-X5FyS6nOSef-7" edge="1">
          <mxGeometry relative="1" as="geometry">
            <mxPoint x="770" y="364" as="sourcePoint" />
            <mxPoint x="560" y="355" as="targetPoint" />
          </mxGeometry>
        </mxCell>
        <mxCell id="rK1kGzo9-X5FyS6nOSef-37" style="rounded=0;orthogonalLoop=1;jettySize=auto;html=1;entryX=0.093;entryY=0.733;entryDx=0;entryDy=0;endArrow=none;endFill=0;entryPerimeter=0;" parent="1" source="rK1kGzo9-X5FyS6nOSef-34" target="rK1kGzo9-X5FyS6nOSef-20" edge="1">
          <mxGeometry relative="1" as="geometry">
            <mxPoint x="780" y="374" as="sourcePoint" />
            <mxPoint x="570" y="365" as="targetPoint" />
          </mxGeometry>
        </mxCell>
        <mxCell id="rK1kGzo9-X5FyS6nOSef-38" style="rounded=0;orthogonalLoop=1;jettySize=auto;html=1;entryX=0.071;entryY=0.267;entryDx=0;entryDy=0;endArrow=none;endFill=0;entryPerimeter=0;" parent="1" source="rK1kGzo9-X5FyS6nOSef-34" target="rK1kGzo9-X5FyS6nOSef-35" edge="1">
          <mxGeometry relative="1" as="geometry">
            <mxPoint x="754" y="558" as="sourcePoint" />
            <mxPoint x="580" y="375" as="targetPoint" />
          </mxGeometry>
        </mxCell>
        <mxCell id="rK1kGzo9-X5FyS6nOSef-39" value="Добавлять учеников в группу" style="ellipse;whiteSpace=wrap;html=1;" parent="1" vertex="1">
          <mxGeometry x="511" y="737" width="151" height="30" as="geometry" />
        </mxCell>
        <mxCell id="rK1kGzo9-X5FyS6nOSef-40" style="rounded=0;orthogonalLoop=1;jettySize=auto;html=1;dashed=1;exitX=0.964;exitY=0.867;exitDx=0;exitDy=0;exitPerimeter=0;" parent="1" source="rK1kGzo9-X5FyS6nOSef-35" target="rK1kGzo9-X5FyS6nOSef-39" edge="1">
          <mxGeometry relative="1" as="geometry">
            <mxPoint x="493" y="449" as="sourcePoint" />
            <mxPoint x="494" y="498" as="targetPoint" />
          </mxGeometry>
        </mxCell>
        <mxCell id="rK1kGzo9-X5FyS6nOSef-41" value="&quot;include&quot;" style="edgeLabel;html=1;align=center;verticalAlign=middle;resizable=0;points=[];" parent="rK1kGzo9-X5FyS6nOSef-40" vertex="1" connectable="0">
          <mxGeometry x="0.061" relative="1" as="geometry">
            <mxPoint x="28" y="-9" as="offset" />
          </mxGeometry>
        </mxCell>
        <mxCell id="rK1kGzo9-X5FyS6nOSef-42" value="Добавлять экзамены для группы" style="ellipse;whiteSpace=wrap;html=1;" parent="1" vertex="1">
          <mxGeometry x="511" y="655" width="156" height="30" as="geometry" />
        </mxCell>
        <mxCell id="rK1kGzo9-X5FyS6nOSef-44" style="rounded=0;orthogonalLoop=1;jettySize=auto;html=1;entryX=0;entryY=0.5;entryDx=0;entryDy=0;dashed=1;exitX=0.75;exitY=0.033;exitDx=0;exitDy=0;exitPerimeter=0;" parent="1" source="rK1kGzo9-X5FyS6nOSef-35" target="rK1kGzo9-X5FyS6nOSef-42" edge="1">
          <mxGeometry relative="1" as="geometry">
            <mxPoint x="558.5" y="572" as="sourcePoint" />
            <mxPoint x="546.5" y="613" as="targetPoint" />
          </mxGeometry>
        </mxCell>
        <mxCell id="rK1kGzo9-X5FyS6nOSef-45" value="&quot;include&quot;" style="edgeLabel;html=1;align=center;verticalAlign=middle;resizable=0;points=[];" parent="rK1kGzo9-X5FyS6nOSef-44" vertex="1" connectable="0">
          <mxGeometry x="0.061" relative="1" as="geometry">
            <mxPoint x="6" y="3" as="offset" />
          </mxGeometry>
        </mxCell>
        <mxCell id="MFEk_C_fDICzQkaHJjob-1" value="Добавить предмет" style="ellipse;whiteSpace=wrap;html=1;" parent="1" vertex="1">
          <mxGeometry x="348" y="594" width="140" height="30" as="geometry" />
        </mxCell>
        <mxCell id="MFEk_C_fDICzQkaHJjob-2" style="rounded=0;orthogonalLoop=1;jettySize=auto;html=1;endArrow=none;endFill=0;entryX=0;entryY=0.5;entryDx=0;entryDy=0;" parent="1" source="rK1kGzo9-X5FyS6nOSef-34" target="MFEk_C_fDICzQkaHJjob-1" edge="1">
          <mxGeometry relative="1" as="geometry">
            <mxPoint x="764" y="568" as="sourcePoint" />
            <mxPoint x="660" y="600" as="targetPoint" />
          </mxGeometry>
        </mxCell>
        <mxCell id="lUs5KWJS7lvhmiSBF2-a-3" value="Просматривать сдаваемые предметы" style="ellipse;whiteSpace=wrap;html=1;" parent="1" vertex="1">
          <mxGeometry x="129" y="771" width="186" height="30" as="geometry" />
        </mxCell>
        <mxCell id="lUs5KWJS7lvhmiSBF2-a-6" style="rounded=0;orthogonalLoop=1;jettySize=auto;html=1;entryX=0.823;entryY=-0.033;entryDx=0;entryDy=0;dashed=1;exitX=0.279;exitY=1.1;exitDx=0;exitDy=0;exitPerimeter=0;entryPerimeter=0;" parent="1" source="rK1kGzo9-X5FyS6nOSef-35" target="lUs5KWJS7lvhmiSBF2-a-3" edge="1">
          <mxGeometry relative="1" as="geometry">
            <mxPoint x="282" y="667" as="sourcePoint" />
            <mxPoint x="197" y="711" as="targetPoint" />
          </mxGeometry>
        </mxCell>
        <mxCell id="lUs5KWJS7lvhmiSBF2-a-7" value="&quot;include&quot;" style="edgeLabel;html=1;align=center;verticalAlign=middle;resizable=0;points=[];" parent="lUs5KWJS7lvhmiSBF2-a-6" vertex="1" connectable="0">
          <mxGeometry x="0.061" relative="1" as="geometry">
            <mxPoint x="6" y="3" as="offset" />
          </mxGeometry>
        </mxCell>
        <mxCell id="lUs5KWJS7lvhmiSBF2-a-8" style="rounded=0;orthogonalLoop=1;jettySize=auto;html=1;endArrow=none;endFill=0;exitX=0;exitY=0.5;exitDx=0;exitDy=0;" parent="1" source="lUs5KWJS7lvhmiSBF2-a-3" target="WNxXBfY8PEVAikAszBV7-1" edge="1">
          <mxGeometry relative="1" as="geometry">
            <mxPoint x="87" y="374" as="sourcePoint" />
            <mxPoint x="127" y="415" as="targetPoint" />
          </mxGeometry>
        </mxCell>
        <mxCell id="lUs5KWJS7lvhmiSBF2-a-9" style="rounded=0;orthogonalLoop=1;jettySize=auto;html=1;endArrow=none;endFill=0;exitX=0.043;exitY=0.267;exitDx=0;exitDy=0;exitPerimeter=0;" parent="1" source="lUs5KWJS7lvhmiSBF2-a-3" target="WNxXBfY8PEVAikAszBV7-5" edge="1">
          <mxGeometry relative="1" as="geometry">
            <mxPoint x="279" y="599" as="sourcePoint" />
            <mxPoint x="76" y="484" as="targetPoint" />
          </mxGeometry>
        </mxCell>
        <mxCell id="ByHUSkTLS3x9LHr_yoHE-1" value="Назначить дату экзамена&amp;nbsp;" style="ellipse;whiteSpace=wrap;html=1;" parent="1" vertex="1">
          <mxGeometry x="388" y="776" width="156" height="30" as="geometry" />
        </mxCell>
        <mxCell id="ByHUSkTLS3x9LHr_yoHE-3" style="rounded=0;orthogonalLoop=1;jettySize=auto;html=1;entryX=0.609;entryY=0.067;entryDx=0;entryDy=0;dashed=1;exitX=0.5;exitY=1;exitDx=0;exitDy=0;entryPerimeter=0;" parent="1" source="rK1kGzo9-X5FyS6nOSef-35" target="ByHUSkTLS3x9LHr_yoHE-1" edge="1">
          <mxGeometry relative="1" as="geometry">
            <mxPoint x="430" y="693" as="sourcePoint" />
            <mxPoint x="318" y="779" as="targetPoint" />
          </mxGeometry>
        </mxCell>
        <mxCell id="ByHUSkTLS3x9LHr_yoHE-4" value="&quot;include&quot;" style="edgeLabel;html=1;align=center;verticalAlign=middle;resizable=0;points=[];" parent="ByHUSkTLS3x9LHr_yoHE-3" vertex="1" connectable="0">
          <mxGeometry x="0.061" relative="1" as="geometry">
            <mxPoint x="28" y="-9" as="offset" />
          </mxGeometry>
        </mxCell>
      </root>
    </mxGraphModel>
  </diagram>
</mxfile>
